<svg xmlns="http://www.w3.org/2000/svg" xmlns:xlink="http://www.w3.org/1999/xlink" aria-hidden="true" role="img" class="iconify iconify--logos" width="35.93" height="32" preserveAspectRatio="xMidYMid meet" viewBox="0 0 256 228"><path fill="#00D8FF" d="M210.483 73.824a171.49 171.49 0 0 0-8.24-2.597c.465-1.9.893-3.777 1.273-5.621c6.238-30.281 2.16-54.676-11.769-62.708c-13.355-7.7-35.196.329-57.254 19.526a171.23 171.23 0 0 0-6.375 5.848a155.866 155.866 0 0 0-4.241-3.917C100.759 3.829 77.587-4.822 63.673 3.233C50.33 10.957 46.379 33.89 51.995 62.588a170.974 170.974 0 0 0 1.892 8.48c-3.28.932-6.445 1.924-9.474 2.98C17.309 83.498 0 98.307 0 113.668c0 15.865 18.582 31.778 46.812 41.427a145.52 145.52 0 0 0 6.921 2.165a167.467 167.467 0 0 0-2.01 9.138c-5.354 28.2-1.173 50.591 12.134 58.266c13.744 7.926 36.812-.22 59.273-19.855a145.567 145.567 0 0 0 5.342-4.923a168.064 168.064 0 0 0 6.92 6.314c21.758 18.722 43.246 26.282 56.54 18.586c13.731-7.949 18.194-32.003 12.4-61.268a145.016 145.016 0 0 0-1.535-6.842c1.62-.48 3.21-.974 4.76-1.488c29.348-9.723 48.443-25.443 48.443-41.52c0-15.417-17.868-30.326-45.517-39.844Zm-6.365 70.984c-1.4.463-2.836.91-4.3 1.345a147.88 147.88 0 0 0-3.92-12.803c8.424-2.4 16.085-5.3 22.42-8.645c6.334-3.345 10.244-6.9 10.244-10.143c0-6.365-11.214-15.865-29.676-22.4a108.28 108.28 0 0 0-3.6-1.2c2.4-7.8 4.275-15.345 5.4-22.2c.3-1.8.555-3.555.765-5.265c18.6 5.1 30.6 14.7 30.6 23.4c0 8.7-12 18.3-30.6 23.4c-.21 1.71-.465 3.465-.765 5.265c-1.125 6.855-3 14.4-5.4 22.2c1.2.3 2.4.6 3.6 1.2c18.462 6.535 29.676 16.035 29.676 22.4c0 3.243-3.91 6.798-10.244 10.143c-6.335 3.345-13.996 6.245-22.42 8.645a147.88 147.88 0 0 0 3.92-12.803c1.464.435 2.9.882 4.3 1.345c16.758 5.535 27.138 13.8 27.138 19.2c0 5.4-10.38 13.665-27.138 19.2Z"></path><ellipse cx="128" cy="113.668" fill="#00D8FF" rx="29.676" ry="22.4"></ellipse><path fill="#00D8FF" d="M128 91.268c16.2 0 29.4 10.05 29.4 22.4s-13.2 22.4-29.4 22.4s-29.4-10.05-29.4-22.4s13.2-22.4 29.4-22.4Z"></path></svg>
